<svg xmlns="http://www.w3.org/2000/svg" width="1494" height="448" viewBox="0 0 1494 448">
  <g fill="none" fill-rule="evenodd">
    <path fill="#222" d="M471,176 L486.416399,176 L486.416399,216.79638 L534.670418,176 L544.694534,176 L498.92926,214.714932 L557,268 L537.366559,268 L486.416399,242.023961 L486.416399,268 L471,268 L471,176 Z M563,176 L578.416399,176 L578.416399,216.79638 L626.670418,176 L636.694534,176 L590.92926,214.714932 L649,268 L629.366559,268 L578.416399,242.404157 L578.416399,268 L563,268 L563,176 Z M724,176 L724,181.966817 L690.728656,181.966817 L690.728656,268 L675.271344,268 L655.500392,181.966817 L642,181.966817 L642,176 L724,176 Z M719.063927,243 C720.939127,243 722.729063,243.375984 724.43379,244.127962 C726.138517,244.879941 727.630131,245.875191 728.908676,247.113744 C730.187221,248.352297 731.188733,249.834115 731.913242,251.559242 C732.637751,253.284369 733,255.07582 733,256.933649 C733,258.968415 732.637751,260.826216 731.913242,262.507109 C731.188733,264.188002 730.187221,265.66982 728.908676,266.952607 C727.630131,268.235393 726.138517,269.230644 724.43379,269.938389 C722.729063,270.646133 720.939127,271 719.063927,271 C717.103491,271 715.270937,270.646133 713.56621,269.938389 C711.861483,269.230644 710.369869,268.235393 709.091324,266.952607 C707.812779,265.66982 706.811267,264.188002 706.086758,262.507109 C705.362249,260.826216 705,258.968415 705,256.933649 C705,255.07582 705.362249,253.284369 706.086758,251.559242 C706.811267,249.834115 707.812779,248.352297 709.091324,247.113744 C710.369869,245.875191 711.861483,244.879941 713.56621,244.127962 C715.270937,243.375984 717.103491,243 719.063927,243 Z"/>
    <path fill="#21538E" d="M781.899471,265.125451 C784.2501,265.125451 786.576708,264.810746 788.879365,264.181327 C791.182022,263.551907 793.244788,262.619449 795.067725,261.383922 C796.890662,260.148396 798.353786,258.63315 799.457143,256.83814 C800.560499,255.04313 801.112169,252.956753 801.112169,250.578947 C801.112169,247.734905 800.356621,245.205611 798.845503,242.990988 C797.334384,240.776365 795.355568,238.748267 792.908995,236.906633 C790.462422,235.064999 787.668093,233.328295 784.525926,231.696467 C781.383759,230.06464 778.181674,228.432837 774.919577,226.801009 C771.657479,225.169182 768.455395,223.455789 765.313228,221.660779 C762.17106,219.865768 759.376732,217.860982 756.930159,215.646359 C754.483586,213.431736 752.504769,210.96072 750.993651,208.233237 C749.482532,205.505754 748.726984,202.370361 748.726984,198.826965 C748.726984,195.283568 749.410575,191.996651 750.777778,188.966114 C752.14498,185.935577 754.147782,183.313037 756.786243,181.098414 C759.424705,178.883791 762.67476,177.147086 766.536508,175.888248 C770.398256,174.62941 774.823608,174 779.812698,174 C784.322068,174 788.351658,174.466229 791.901587,175.398702 C795.451517,176.331175 798.569651,177.706552 801.256085,179.524874 C803.942518,181.343196 806.221155,183.581097 808.092063,186.238645 C809.962972,188.896192 811.474068,191.973306 812.625397,195.470079 L804.422222,199.106705 C803.462782,196.262663 802.239514,193.663434 800.752381,191.30894 C799.265248,188.954446 797.49031,186.938004 795.427513,185.259553 C793.364716,183.581102 790.978144,182.287315 788.267725,181.378154 C785.557306,180.468993 782.499135,180.01442 779.093122,180.01442 C776.070884,180.01442 773.432463,180.42237 771.177778,181.238284 C768.923093,182.054198 767.040219,183.126525 765.529101,184.455299 C764.017982,185.784073 762.890656,187.276007 762.14709,188.931146 C761.403524,190.586286 761.031746,192.276367 761.031746,194.001442 C761.031746,196.425871 761.799287,198.652117 763.334392,200.680245 C764.869496,202.708374 766.908277,204.619914 769.450794,206.414924 C771.993311,208.209934 774.883582,209.946639 778.121693,211.62509 C781.359805,213.303541 784.657832,215.005279 788.015873,216.730353 C791.373914,218.455428 794.671941,220.250411 797.910053,222.115357 C801.148164,223.980303 804.038435,226.020056 806.580952,228.234679 C809.12347,230.449302 811.16225,232.873695 812.697354,235.507931 C814.232459,238.142166 815,241.091068 815,244.354722 C815,248.03799 814.28043,251.499743 812.84127,254.740087 C811.402109,257.98043 809.243401,260.801118 806.365079,263.202235 C803.486758,265.603353 799.912896,267.503237 795.643386,268.901947 C791.373876,270.300656 786.408847,271 780.748148,271 C776.142834,271 772.041288,270.510459 768.443386,269.531363 C764.845485,268.552266 761.667386,267.130266 758.908995,265.265321 C756.150603,263.400375 753.788017,261.127507 751.821164,258.446647 C749.854311,255.765788 748.247273,252.70033 747,249.25018 L755.562963,245.82336 C756.570375,248.853896 757.925565,251.558027 759.628571,253.935833 C761.331578,256.313638 763.310394,258.330081 765.565079,259.98522 C767.819764,261.640359 770.326265,262.910834 773.084656,263.796683 C775.843047,264.682533 778.78129,265.125451 781.899471,265.125451 Z M867.899471,265.125451 C870.2501,265.125451 872.576708,264.810746 874.879365,264.181327 C877.182022,263.551907 879.244788,262.619449 881.067725,261.383922 C882.890662,260.148396 884.353786,258.63315 885.457143,256.83814 C886.560499,255.04313 887.112169,252.956753 887.112169,250.578947 C887.112169,247.734905 886.356621,245.205611 884.845503,242.990988 C883.334384,240.776365 881.355568,238.748267 878.908995,236.906633 C876.462422,235.064999 873.668093,233.328295 870.525926,231.696467 C867.383759,230.06464 864.181674,228.432837 860.919577,226.801009 C857.657479,225.169182 854.455395,223.455789 851.313228,221.660779 C848.17106,219.865768 845.376732,217.860982 842.930159,215.646359 C840.483586,213.431736 838.504769,210.96072 836.993651,208.233237 C835.482532,205.505754 834.726984,202.370361 834.726984,198.826965 C834.726984,195.283568 835.410575,191.996651 836.777778,188.966114 C838.14498,185.935577 840.147782,183.313037 842.786243,181.098414 C845.424705,178.883791 848.67476,177.147086 852.536508,175.888248 C856.398256,174.62941 860.823608,174 865.812698,174 C870.322068,174 874.351658,174.466229 877.901587,175.398702 C881.451517,176.331175 884.569651,177.706552 887.256085,179.524874 C889.942518,181.343196 892.221155,183.581097 894.092063,186.238645 C895.962972,188.896192 897.474068,191.973306 898.625397,195.470079 L890.422222,199.106705 C889.462782,196.262663 888.239514,193.663434 886.752381,191.30894 C885.265248,188.954446 883.49031,186.938004 881.427513,185.259553 C879.364716,183.581102 876.978144,182.287315 874.267725,181.378154 C871.557306,180.468993 868.499135,180.01442 865.093122,180.01442 C862.070884,180.01442 859.432463,180.42237 857.177778,181.238284 C854.923093,182.054198 853.040219,183.126525 851.529101,184.455299 C850.017982,185.784073 848.890656,187.276007 848.14709,188.931146 C847.403524,190.586286 847.031746,192.276367 847.031746,194.001442 C847.031746,196.425871 847.799287,198.652117 849.334392,200.680245 C850.869496,202.708374 852.908277,204.619914 855.450794,206.414924 C857.993311,208.209934 860.883582,209.946639 864.121693,211.62509 C867.359805,213.303541 870.657832,215.005279 874.015873,216.730353 C877.373914,218.455428 880.671941,220.250411 883.910053,222.115357 C887.148164,223.980303 890.038435,226.020056 892.580952,228.234679 C895.12347,230.449302 897.16225,232.873695 898.697354,235.507931 C900.232459,238.142166 901,241.091068 901,244.354722 C901,248.03799 900.28043,251.499743 898.84127,254.740087 C897.402109,257.98043 895.243401,260.801118 892.365079,263.202235 C889.486758,265.603353 885.912896,267.503237 881.643386,268.901947 C877.373876,270.300656 872.408847,271 866.748148,271 C862.142834,271 858.041288,270.510459 854.443386,269.531363 C850.845485,268.552266 847.667386,267.130266 844.908995,265.265321 C842.150603,263.400375 839.788017,261.127507 837.821164,258.446647 C835.854311,255.765788 834.247273,252.70033 833,249.25018 L841.562963,245.82336 C842.570375,248.853896 843.925565,251.558027 845.628571,253.935833 C847.331578,256.313638 849.310394,258.330081 851.565079,259.98522 C853.819764,261.640359 856.326265,262.910834 859.084656,263.796683 C861.843047,264.682533 864.78129,265.125451 867.899471,265.125451 Z M923,179 L956.066424,179 C961.769213,179 966.777048,179.583327 971.090082,180.75 C975.403115,181.916673 978.997256,183.552277 981.872611,185.656863 C984.747967,187.761448 986.916432,190.266325 988.378071,193.171569 C989.83971,196.076812 990.570519,199.245081 990.570519,202.676471 C990.570519,205.513086 990.007437,208.166654 988.881256,210.637255 C987.755075,213.107855 986.173653,215.338225 984.136943,217.328431 C982.100232,219.318637 979.644236,221.034307 976.768881,222.47549 C973.893525,223.916674 970.730681,225.049015 967.280255,225.872549 L1002,270 L983.382166,270 L939.030027,245.767577 L939.030027,270 L923,270 L923,179 Z M937,220 L946.485294,220 C950.161783,220 953.556357,219.541897 956.669118,218.625678 C959.781878,217.709459 962.47793,216.415319 964.757353,214.743219 C967.036776,213.071119 968.813719,211.044014 970.088235,208.661844 C971.362751,206.279675 972,203.599774 972,200.622061 C972,197.873404 971.497554,195.353839 970.492647,193.063291 C969.48774,190.772743 968.066186,188.814354 966.227941,187.188065 C964.389697,185.561776 962.208346,184.290541 959.683824,183.374322 C957.159301,182.458103 954.401976,182 951.411765,182 L937,182 L937,220 Z"/>
  </g>
</svg>
